<svg id="Ebene_1" xmlns="http://www.w3.org/2000/svg" viewBox="0 0 1838 372.3"><style>.st0{fill:#d84315}.st1{fill:#ff5722}</style><g id="DEV"><path class="st0" d="M100.6 338.7l-33.5 33.5-66.9-67 33.4-33.4h67z"/><path class="st0" d="M101 272V71H33.6L.2 104.4l33.4 33.5L.2 171.3l33.4 33.5L.2 238.3l66.9 66.9 67.2 67 33.7-33.5V272z"/><path class="st0" d="M267 71h-33V37h-33V4H33.6L.2 37.4l66.9 67 33.5-33.5 33.5 33.4 16.6-16.5 16.4 16.4-.2.1 33.7 33.7h-.2l-33.5 33.4 16.8 16.7-16.8 16.7 33.5 33.5-33.5 33.5.2.1-33.3 33.3 66.8 67 33.4-33.5v-.3l33-33.2V137.8zM401.7 338.7l-33.5 33.5-67-67 33.5-33.4h67z"/><path class="st0" d="M468.6 272H402v-67h-67.3l-33.6 33.4 66.9 66.9 67.1 66.9 16.7-16.7 16.7 16.7 33.5-33.5V272z"/><path class="st0" d="M401.7 204.8l-33.5 33.5-67-67 33.5-33.5h67z"/><path class="st0" d="M402 138V71h-67.3l-33.6 33.4 66.9 66.9 67.2 67 33.8-33.5V138z"/><path class="st0" d="M468.6 4H334.7l-33.5 33.3 67 66.9 33.5-33.5 33.4 33.5 16.8-16.8 16.7 16.8L502 70.7V4z"/><path class="st1" d="M368 104h101V37H301V372h168v-67H368v-67h67v-67h-67v-42z"/><path class="st0" d="M652 205v-67h-16.7l-.3-.3V4h-66.6L535 37.3l33.4 33.5-33.4 33.4 41.9 41.9-25.2 25.2 38.6 38.6-28.4 28.4 66.8 66.9 33.3-33.4V205z"/><path class="st0" d="M762.5 71l.5-.3V4h-67.2l-33.5 33.3L696.1 71h-.3l-33.5 33.5 33.5 33.5h-19.5l-33.5 33.5 33.5 33.5h-14l-33.5 33.5 33.5 33.5h-33.5l-33.4 33.4 67 66.9 33.6-33.6v-33.5l33-33.4v-53.1l14-13.9v-47.4l20-19.6V71z"/><path class="st1" d="M201 104V71h-33V37H0v335h201v-33h33V104h-33zm-34 67.3V305H67V104h67v34h33v33.3zM662 37v134h-19v67h-24v-67h-17V37h-67v134h17v67h10v67h33v67h67v-67h34v-67h14v-67h19V37z"/></g><g id="FEST"><path class="st0" d="M1669.3 68l-33.6 33.4 33.6 33.5-33.6 33.6 33.6 33.6-33.6 33.7 33.6 33.6-33.6 33.6 67.5 67.3 33.8-33.6V68z"/><path class="st0" d="M1803.9 0H1568.4l-33.7 33.7L1602 101l16.9-16.8 16.8 16.8 33.6-33.7L1703 101l33.6-33.7 33.7 33.7 16.8-16.8 17 16.8 33.9-33.7V0zM1433.4 0h-133.1l-33.6 33.7L1334 101l32.9-32.9 32.9 32.9 33.6-33.7 33.8 33.7 33.8-33.7V0zM1367.6 270h-67.3l-33.6 33.5 67.3 67.2 32.9-32.9 32.7 32.8L1433 337v-67z"/><path class="st0" d="M1500 270v-67h-66.4l1.4-1.1V135h-67V67h-67.7l-33.6 33.8 67.3 67.4 67 67-1.7 1.7 33.4 33.4-32.9 33 67.4 67.3L1501 337v-67z"/><path class="st1" d="M1334 168h67v68h-67zM1399.8 34H1267v134h67v-67h133V34zM1467 237h-68v66h-132v68h200v-68z"/><path class="st0" d="M1132.4 336.6l-33.6 33.7-67.3-67.3 33.6-33.7h67.3z"/><path class="st0" d="M1199.7 269H1132v-67h-66.9l-33.6 33.7 67.3 67.3 67.3 67.2 16.8-16.8 16.6 16.9 33.5-33.7V269z"/><path class="st0" d="M1132.4 202l-33.6 33.7-67.3-67.3 33.6-33.7h67.3z"/><path class="st0" d="M1132 135V67h-66.9l-33.5 33.9 67.4 67.4 67.3 67.3L1200 202v-67z"/><path class="st0" d="M1199.7 0H1065.1l-33.6 33.6 67.3 67.3 33.6-33.6 33.7 33.6 16.8-16.8 16.6 16.8 33.5-33.7V0z"/><path class="st1" d="M1031 73.1h68v61.7h-68z"/><path class="st1" d="M1132.4 101h67.6V34h-169v336h169v-67h-101v-67h67v-68h-67v-67z"/><path class="st0" d="M829.9 202l-33.6 33.7 33.6 33.6-33.6 33.7 67.2 67.2 33.5-33.6V202z"/><path class="st0" d="M897.2 202l-33.6 33.7-67.3-67.3 33.6-33.7h67.3z"/><path class="st0" d="M897 135V67h-67.1l-33.4 33.9 67.5 67.4 67.3 67.3L965 202v-67z"/><path class="st0" d="M964.5 0H829.9l-33.6 33.6 67.3 67.3 33.6-33.6 33.7 33.6 16.8-16.8 16.7 16.8L998 67.2V0z"/><path class="st1" d="M864 126v-25h101V34H796v336h68V236h67v-68h-67v-42zM1770.3 34H1535v67h101v269h67V101H1804V34z"/></g></svg>